<svg xmlns="http://www.w3.org/2000/svg" fill="#1ab798" width="20" height="20" viewBox="0 0 20 20"><path d="M18 9.87V20H2V9.87a4.231 4.231 0 003.023-.391l-.022.011V14h10V9.5c.576.31 1.261.492 1.988.492.359 0 .708-.045 1.042-.128l-.029.006zM3 0h4l-.67 6.03A3.434 3.434 0 013.004 9H3C1.34 9 .42 7.73.95 6.15L3 0zm5 0h4l.7 6.3c.17 1.5-.91 2.7-2.42 2.7h-.56l-.062.001a2.38 2.38 0 01-2.357-2.713l-.001.013.7-6.3zm5 0h4l2.05 6.15C19.58 7.73 18.65 9 17 9a3.421 3.421 0 01-3.328-2.952l-.002-.018L13 0z"/></svg>